<svg width="98" height="98" viewBox="0 0 98 98" fill="none" xmlns="http://www.w3.org/2000/svg">
<path d="M94.7956 49C96.5653 49 98.0109 50.4365 97.8953 52.2025C97.1212 64.0288 92.0798 75.2167 83.6482 83.6482C74.4589 92.8375 61.9956 98 49 98C36.0044 98 23.541 92.8375 14.3518 83.6482C5.92024 75.2167 0.878789 64.0288 0.104673 52.2025C-0.0109199 50.4365 1.43466 49 3.2044 49C4.97414 49 6.39625 50.4368 6.5292 52.2015C7.29204 62.3265 11.6541 71.8871 18.8835 79.1165C26.8709 87.1039 37.7041 91.5912 49 91.5912C60.2959 91.5912 71.1291 87.1039 79.1165 79.1165C86.3459 71.8872 90.708 62.3265 91.4708 52.2015C91.6037 50.4368 93.0259 49 94.7956 49Z" fill="#FF4948"/>
<path opacity="0.5" d="M97 49C97 75.5097 75.5097 97 49 97C22.4903 97 1 75.5097 1 49C1 22.4903 22.4903 1 49 1C75.5097 1 97 22.4903 97 49ZM5.70166 49C5.70166 72.913 25.087 92.2983 49 92.2983C72.913 92.2983 92.2983 72.913 92.2983 49C92.2983 25.087 72.913 5.70166 49 5.70166C25.087 5.70166 5.70166 25.087 5.70166 49Z" fill="#F68080"/>
<circle cx="48.5" cy="48.5" r="34.5" stroke="#FDD8D8" stroke-width="2" stroke-linecap="round"/>
<path d="M58.6722 54.2339L51.2181 48.5L58.6722 42.7661C59.2456 42.3223 59.5817 41.6384 59.5828 40.9133C59.5795 40.1882 59.2414 39.5053 58.6668 39.063L48.7501 31.4797C48.7233 31.4593 48.6948 31.4412 48.6649 31.4255C48.2756 31.1488 47.8099 31.0001 47.3322 31C46.0223 31.0475 44.9883 32.129 44.9994 33.4396V43.6442L40.7389 40.0423C40.4945 39.8441 40.1803 39.7529 39.8678 39.7896C39.5553 39.8264 39.2707 39.9877 39.0789 40.2371L37.6582 42.0845C37.2763 42.5849 37.3582 43.2976 37.8437 43.6983L43.6094 48.5L37.8513 53.2957C37.3605 53.6952 37.2751 54.4121 37.6582 54.9158L39.0789 56.7629C39.272 57.014 39.5589 57.1758 39.8737 57.2111C40.1885 57.2464 40.5042 57.1522 40.7481 56.95L44.9995 53.3558V63.5604C44.9883 64.8711 46.0226 65.9526 47.3325 66C47.8094 65.9998 48.2746 65.8515 48.6635 65.5754C48.6939 65.5595 48.7229 65.5411 48.7501 65.5204L58.6668 57.937C59.2432 57.4962 59.5817 56.8124 59.5828 56.0868C59.5839 55.3612 59.2473 54.6764 58.6722 54.2339ZM57.9581 57.0102L48.1126 64.5391C48.0861 64.5536 48.0607 64.5701 48.0366 64.5884C47.8356 64.7456 47.588 64.8317 47.3328 64.8333C46.6714 64.7783 46.1634 64.2241 46.1661 63.5604V52.0988C46.1661 51.8718 46.0344 51.6653 45.8283 51.5697C45.6224 51.4742 45.3796 51.5068 45.2062 51.6534L40.0035 56.0515L38.5904 54.1984L44.8943 48.9484C45.0274 48.8375 45.1043 48.6732 45.1043 48.5001C45.1043 48.3269 45.0274 48.1626 44.8943 48.0518L38.5828 42.7958L39.9949 40.941L45.2062 45.3467C45.3796 45.4933 45.6224 45.526 45.8283 45.4304C46.0343 45.3348 46.1661 45.1283 46.166 44.9012V33.4396C46.1633 32.776 46.6711 32.2219 47.3324 32.1667C47.5878 32.1682 47.8354 32.2544 48.0365 32.4116C48.0603 32.4298 48.0854 32.4461 48.1117 32.4604L57.9581 39.9899C58.2463 40.2103 58.4156 40.5523 58.4161 40.915C58.4166 41.2779 58.2483 41.6203 57.9607 41.8415L49.9057 48.0378C49.7622 48.1482 49.6781 48.319 49.6781 48.5001C49.6781 48.6812 49.7622 48.8519 49.9057 48.9624L57.9607 55.1586C58.2483 55.3798 58.4166 55.7222 58.4161 56.0851C58.4156 56.4478 58.2463 56.7898 57.9581 57.0102Z" fill="#FF4948"/>
<path d="M49.0834 45.5739C49.4056 45.5739 49.6667 45.3128 49.6667 44.9906V38.0547L53.4159 40.9217L51.0609 42.7333C50.8071 42.9302 50.7602 43.2953 50.9562 43.5499C51.1521 43.8046 51.517 43.8528 51.7724 43.6578L54.7301 41.3826C54.8739 41.272 54.958 41.1008 54.9577 40.9194C54.9574 40.7381 54.8728 40.5671 54.7287 40.4569L49.4377 36.4109C49.2614 36.2762 49.0239 36.2531 48.8249 36.3514C48.626 36.4497 48.5001 36.6524 48.5 36.8743V44.9906C48.5001 45.3128 48.7612 45.5739 49.0834 45.5739Z" fill="#FF4948"/>
<path d="M54.7301 55.6171L51.7724 53.3419C51.517 53.1469 51.152 53.1951 50.9561 53.4498C50.7602 53.7044 50.807 54.0695 51.0609 54.2665L53.4159 56.078L49.6666 58.945V52.0091C49.6666 51.6869 49.4055 51.4258 49.0833 51.4258C48.7611 51.4258 48.5 51.6869 48.5 52.0091V60.1253C48.5 60.3473 48.6259 60.55 48.8249 60.6483C49.0239 60.7466 49.2614 60.7235 49.4377 60.5887L54.7287 56.5428C54.8728 56.4326 54.9574 56.2617 54.9577 56.0802C54.958 55.8989 54.8738 55.7277 54.7301 55.6171Z" fill="#FF4948"/>
</svg>
