<svg width="98" height="98" viewBox="0 0 98 98" fill="none" xmlns="http://www.w3.org/2000/svg">
<path d="M94.7956 49C96.5653 49 98.0109 50.4365 97.8953 52.2025C97.1212 64.0288 92.0798 75.2167 83.6482 83.6482C74.4589 92.8375 61.9956 98 49 98C36.0044 98 23.541 92.8375 14.3518 83.6482C5.92024 75.2167 0.878789 64.0288 0.104673 52.2025C-0.0109199 50.4365 1.43466 49 3.2044 49C4.97414 49 6.39625 50.4368 6.5292 52.2015C7.29204 62.3265 11.6541 71.8871 18.8835 79.1165C26.8709 87.1039 37.7041 91.5912 49 91.5912C60.2959 91.5912 71.1291 87.1039 79.1165 79.1165C86.3459 71.8872 90.708 62.3265 91.4708 52.2015C91.6037 50.4368 93.0259 49 94.7956 49Z" fill="#FF4948"/>
<path opacity="0.5" d="M97 49C97 75.5097 75.5097 97 49 97C22.4903 97 1 75.5097 1 49C1 22.4903 22.4903 1 49 1C75.5097 1 97 22.4903 97 49ZM5.70166 49C5.70166 72.913 25.087 92.2983 49 92.2983C72.913 92.2983 92.2983 72.913 92.2983 49C92.2983 25.087 72.913 5.70166 49 5.70166C25.087 5.70166 5.70166 25.087 5.70166 49Z" fill="#F68080"/>
<circle cx="48.5" cy="48.5" r="34.5" stroke="#FDD8D8" stroke-width="2" stroke-linecap="round"/>
<path d="M38.3878 40.5521C38.1362 40.3004 37.7281 40.3003 37.4763 40.552C35.9664 42.0616 35.1348 44.0672 35.1348 46.1993C35.1348 48.3315 35.9663 50.337 37.4763 51.8467C37.6022 51.9725 37.7671 52.0354 37.932 52.0354C38.097 52.0354 38.262 51.9724 38.3878 51.8465C38.6395 51.5948 38.6395 51.1867 38.3878 50.935C37.1213 49.6689 36.4239 47.9871 36.4239 46.1992C36.4239 44.4115 37.1213 42.7296 38.3878 41.4635C38.6395 41.2119 38.6395 40.8038 38.3878 40.5521Z" fill="#FF4948"/>
<path d="M56.3073 43.74C55.9514 43.74 55.6628 44.0286 55.6628 44.3845V45.3756H54.2094V38.5103C54.2094 35.3648 51.6474 32.8057 48.4984 32.8057C45.3504 32.8057 42.7893 35.3648 42.7893 38.5103V45.3756H41.3359V44.3846C41.3359 44.0287 41.0474 43.7401 40.6914 43.7401C40.3354 43.7401 40.0469 44.0287 40.0469 44.3846V48.187C40.0469 51.9726 42.5518 55.1845 45.9922 56.2543V59.7327H43.7627C42.5308 59.7327 41.5287 60.7335 41.5287 61.9635V63.3162C41.5287 63.8004 41.9235 64.1943 42.4089 64.1943H45.6044C45.9604 64.1943 46.2489 63.9057 46.2489 63.5498C46.2489 63.1939 45.9604 62.9053 45.6044 62.9053H42.8177V61.9635C42.8177 61.4442 43.2417 61.0218 43.7627 61.0218H53.236C53.7561 61.0218 54.1792 61.4443 54.1792 61.9635V62.9053H51.3926C51.0366 62.9053 50.748 63.1939 50.748 63.5498C50.748 63.9057 51.0366 64.1943 51.3926 64.1943H54.5899C55.0742 64.1943 55.4682 63.8004 55.4682 63.3162V61.9635C55.4682 60.7335 54.4668 59.7327 53.236 59.7327H51.0047V56.2544C54.4461 55.1848 56.9519 51.9728 56.9519 48.187V44.3846C56.9518 44.0286 56.6632 43.74 56.3073 43.74ZM44.0783 38.5103C44.0783 36.0756 46.0611 34.0947 48.4984 34.0947C50.9366 34.0947 52.9202 36.0756 52.9202 38.5103V40.6405H44.0783V38.5103ZM44.0783 41.9295H52.9203V43.6105H44.0783V41.9295ZM44.0783 44.8995H52.9203V48.187C52.9203 50.6217 50.9367 52.6026 48.4984 52.6026C46.0612 52.6026 44.0784 50.6217 44.0784 48.187V44.8995H44.0783ZM49.7156 59.7326H47.2812V56.5454C47.6788 56.603 48.0851 56.6334 48.4984 56.6334C48.9118 56.6334 49.3181 56.603 49.7157 56.5455V59.7326H49.7156ZM55.6628 48.187C55.6628 52.1335 52.4489 55.3443 48.4984 55.3443C44.549 55.3443 41.3359 52.1336 41.3359 48.187V46.6647H42.7893V48.187C42.7893 51.3325 45.3504 53.8916 48.4984 53.8916C51.6474 53.8916 54.2094 51.3325 54.2094 48.187V46.6647H55.6628V48.187Z" fill="#FF4948"/>
<path d="M61.7387 38.337C61.4869 38.0853 61.0787 38.0857 60.8272 38.3374C60.5757 38.5892 60.5758 38.9974 60.8277 39.249C62.6869 41.1066 63.7109 43.5751 63.7109 46.1997C63.7109 48.8243 62.6869 51.2928 60.8277 53.1504C60.5759 53.402 60.5757 53.8101 60.8273 54.062C60.9532 54.1879 61.1182 54.251 61.2832 54.251C61.4481 54.251 61.6129 54.188 61.7388 54.0624C63.8417 51.9612 65 49.1688 65 46.1997C65 43.2305 63.8417 40.4381 61.7387 38.337Z" fill="#FF4948"/>
<path d="M59.522 40.5519C59.27 40.3002 58.862 40.3005 58.6104 40.5522C58.3589 40.8041 58.3591 41.2122 58.6108 41.4638C59.878 42.7299 60.5759 44.4116 60.5759 46.1994C60.5759 47.9871 59.878 49.6689 58.6108 50.935C58.3591 51.1866 58.3589 51.5947 58.6104 51.8466C58.7363 51.9725 58.9014 52.0355 59.0664 52.0355C59.2312 52.0355 59.396 51.9726 59.5219 51.8469C61.0328 50.3373 61.865 48.3317 61.865 46.1994C61.865 44.0671 61.0329 42.0615 59.522 40.5519Z" fill="#FF4948"/>
<path d="M33.2891 46.1997C33.2891 43.575 34.3126 41.1065 36.171 39.2488C36.4228 38.9972 36.4229 38.5892 36.1712 38.3373C35.9195 38.0855 35.5115 38.0855 35.2597 38.3372C33.1576 40.4383 32 43.2306 32 46.1997C32 49.1688 33.1576 51.9612 35.2597 54.0622C35.3855 54.188 35.5505 54.251 35.7153 54.251C35.8803 54.251 36.0453 54.188 36.1712 54.062C36.4228 53.8103 36.4228 53.4022 36.171 53.1505C34.3126 51.2929 33.2891 48.8244 33.2891 46.1997Z" fill="#FF4948"/>
<path d="M48.498 62.9053C48.1421 62.9053 47.8535 63.1939 47.8535 63.5498C47.8535 63.9057 48.1421 64.1943 48.498 64.1943H48.5017C48.8576 64.1943 49.1445 63.9057 49.1445 63.5498C49.1445 63.1939 48.854 62.9053 48.498 62.9053Z" fill="#FF4948"/>
</svg>
